<?xml version="1.0" standalone="no"?>
<!DOCTYPE svg PUBLIC "-//W3C//DTD SVG 20010904//EN" "http://www.w3.org/TR/2001/REC-SVG-20010904/DTD/svg10.dtd">
<!-- Created using Krita: http://krita.org -->
<svg xmlns="http://www.w3.org/2000/svg" 
    xmlns:xlink="http://www.w3.org/1999/xlink"
    xmlns:krita="http://krita.org/namespaces/svg/krita"
    xmlns:sodipodi="http://sodipodi.sourceforge.net/DTD/sodipodi-0.dtd"
    width="310.8pt"
    height="205.68pt"
    viewBox="0 0 310.8 205.68">
<defs/>
<path id="shape0" transform="matrix(1.00000003927616 0 0 1.00000003560978 108.886302382685 114.313290230204)" fill="#000000" fill-rule="evenodd" stroke="#000000" stroke-opacity="0" stroke-width="3.83999616" stroke-linecap="square" stroke-linejoin="bevel" d="M51.048 90.107C39.5059 83.8618 26.0782 77.9623 16.3646 79.1961C14.0258 51.2229 13.9386 16.6736 0 0L14.7909 12.1018"/><path id="shape1" transform="matrix(1.00000003927616 0 0 1.00000003560978 165.838303105328 116.96950634939)" fill="#000000" fill-rule="evenodd" stroke="#000000" stroke-opacity="0" stroke-width="3.83999616" stroke-linecap="square" stroke-linejoin="bevel" d="M35.6297 0C35.7786 23.8792 32.4763 49.0217 36.3909 73.6443C21.9219 72.3305 13.4231 79.3944 0 88.6709"/><path id="shape2" transform="matrix(1.00000003927616 0 0 1.00000003560978 136.920000195664 11.4642145762689)" fill="#000000" fill-rule="evenodd" stroke="#000000" stroke-opacity="0" stroke-width="3.83999616" stroke-linecap="square" stroke-linejoin="bevel" d="M25.7794 174.165C15.2027 147.586 9.58803 115.522 0 84.8958C14.7091 49.8985 23.6792 13.0774 33.5589 0C31.5687 11.1974 31.5306 21.2939 33.4445 30.2897C26.0495 37.4548 24.1812 45.9749 27.8394 55.8501C31.0892 62.6129 37.3473 66.7271 46.6137 68.1927C48.4177 72.3377 50.0089 77.0849 51.3875 82.4342C47.8278 94.7857 39.2065 125.324 25.5234 174.048"/><path id="shape3" transform="matrix(1.00000003927616 0 0 1.00000003560978 46.8857254339433 28.9543766662554)" fill="#000000" fill-rule="evenodd" stroke="#000000" stroke-opacity="0" stroke-width="3.83999616" stroke-linecap="square" stroke-linejoin="bevel" d="M71.4531 158.752C66.1516 130.279 53.8832 102.844 46.8692 72.248C32.2964 51.3874 9.76685 16.8761 0 0C3.44638 14.3974 21.7308 68.5237 28.0315 89.2478C35.1953 96.3369 69.7908 153.417 70.5311 156.558"/><path id="shape4" transform="matrix(1.00000003927616 0 0 1.00000003560978 209.640000884602 21.9995638726121)" fill="#000000" fill-rule="evenodd" stroke="#000000" stroke-opacity="0" stroke-width="3.83999616" stroke-linecap="square" stroke-linejoin="bevel" d="M0 155C10.3895 131.482 21.1942 99.957 33.8658 77.6374C37.3247 57.041 42.5495 27.5514 51.2898 0C35.2323 27.0449 19.3066 53.0402 4.20173 81.9204"/><path id="shape01" transform="matrix(1.00000003927616 0 0 1.00000003560978 163.560000448047 2.07663264943172)" fill="none" stroke="#000000" stroke-width="3.83999616" stroke-linecap="square" stroke-linejoin="bevel" d="M0 37.7634C2.91538 -5.58027 33.2404 -22.0711 23.04 45.6834"/><path id="shape11" transform="matrix(1.00000003927616 0 0 1.00000003560978 252.104601322692 5.32976635633751)" fill="none" stroke="#000000" stroke-width="3.83999616" stroke-linecap="square" stroke-linejoin="bevel" d="M0 35.7069C28.3044 -35.5287 59.1449 12.9743 38.2347 67.0498"/><path id="shape21" transform="matrix(1.00000003927616 0 0 1.00000003560978 12.9553896615335 11.1128064919239)" fill="none" stroke="#000000" stroke-width="3.83999616" stroke-linecap="square" stroke-linejoin="bevel" d="M43.0619 39.2838C11.0071 -37.9496 -8.92674 15.2248 3.97663 58.3776"/><ellipse id="shape31" transform="matrix(1.00000003927616 0 0 1.00000003560978 1.91999994666423 60.6000021686815)" rx="16.5599989914894" ry="16.7999979937077" cx="16.5599989914894" cy="16.7999979937077" fill="#000000" fill-rule="evenodd" stroke="#000000" stroke-width="3.83999616" stroke-linecap="square" stroke-linejoin="bevel"/><ellipse id="shape02" transform="matrix(1.00000006993042 0 0 1.00000005078699 275.775069925211 56.5830618851431)" rx="16.5599989914894" ry="16.7999979937077" cx="16.5599989914894" cy="16.7999979937077" fill="#000000" fill-rule="evenodd" stroke="#000000" stroke-width="3.83999616" stroke-linecap="square" stroke-linejoin="bevel"/><ellipse id="shape011" transform="matrix(1.00000006993042 0 0 1.00000005078699 167.670126397297 41.0461190341055)" rx="16.5599989914894" ry="16.7999979937077" cx="16.5599989914894" cy="16.7999979937077" fill="#000000" fill-rule="evenodd" stroke="#000000" stroke-width="3.83999616" stroke-linecap="square" stroke-linejoin="bevel"/>
</svg>
